<?xml version="1.0" encoding="UTF-8" standalone="no"?>
<!-- Generator: Adobe Illustrator 21.0.2, SVG Export Plug-In . SVG Version: 6.00 Build 0)  -->

<svg
   xmlns:dc="http://purl.org/dc/elements/1.1/"
   xmlns:cc="http://creativecommons.org/ns#"
   xmlns:rdf="http://www.w3.org/1999/02/22-rdf-syntax-ns#"
   xmlns:svg="http://www.w3.org/2000/svg"
   xmlns="http://www.w3.org/2000/svg"
   xmlns:sodipodi="http://sodipodi.sourceforge.net/DTD/sodipodi-0.dtd"
   xmlns:inkscape="http://www.inkscape.org/namespaces/inkscape"
   version="1.1"
   id="Слой_1"
   x="0px"
   y="0px"
   viewBox="0 0 520 140"
   style="enable-background:new 0 0 520 140;"
   xml:space="preserve"
   inkscape:version="0.91 r13725"
   sodipodi:docname="cloud4.svg"><metadata
     id="metadata13"><rdf:RDF><cc:Work
         rdf:about=""><dc:format>image/svg+xml</dc:format><dc:type
           rdf:resource="http://purl.org/dc/dcmitype/StillImage" /><dc:title></dc:title></cc:Work></rdf:RDF></metadata><defs
     id="defs11" /><sodipodi:namedview
     pagecolor="#ffffff"
     bordercolor="#666666"
     borderopacity="1"
     objecttolerance="10"
     gridtolerance="10"
     guidetolerance="10"
     inkscape:pageopacity="0"
     inkscape:pageshadow="2"
     inkscape:window-width="1920"
     inkscape:window-height="1017"
     id="namedview9"
     showgrid="false"
     showguides="true"
     inkscape:guide-bbox="true"
     inkscape:zoom="1.3538462"
     inkscape:cx="-59.460227"
     inkscape:cy="270.68004"
     inkscape:window-x="-4"
     inkscape:window-y="-4"
     inkscape:window-maximized="1"
     inkscape:current-layer="g5" /><style
     type="text/css"
     id="style3">
	.st0{fill:#FFFFFF;}
</style><g
     id="g5"><g
       id="g4157"
       transform="matrix(1.0099504,0,0,1,-360.49154,245.56016)"><path
         id="path4159"
         d="m 874.91066,-143.30546 c -10.34607,-11.46912 -28.52562,-19.14526 -49.42944,-19.14526 -4.07261,0 -8.14523,0.35861 -12.21785,1.07582 -11.19971,-29.40555 -48.87142,-50.92181 -94.17931,-50.92181 -21.38124,0 -40.72618,4.66187 -56.50758,12.90976 -7.63615,-25.81951 -40.72618,-45.18414 -79.41605,-45.18414 -37.16265,0 -68.21637,17.21301 -77.88883,41.2395 -4.5817,-0.71721 -9.1634,-1.07582 -14.25417,-1.07582 -33.09002,0 -60.07112,19.00603 -60.07112,42.3153 0,1.43442 0,3.22744 0.50907,4.66185 -8.14523,-2.86883 -17.30863,-4.66185 -26.98109,-4.66185 -20.41556,0 -38.56205,7.41071 -49.05577,18.71726 l -0.13066,38.90606 519.51092,0.0184 0.1119,-38.85505 z"
         class="st0"
         inkscape:connector-curvature="0"
         style="fill:#ffffff"
         sodipodi:nodetypes="cscscscsscsccccc" /></g></g><style
     id="style4155"
     type="text/css">
	.st0{fill:#FFFFFF;}
</style></svg>