<?xml version="1.0" encoding="utf-8"?>
<!-- Generator: Adobe Illustrator 21.0.2, SVG Export Plug-In . SVG Version: 6.00 Build 0)  -->
<svg version="1.1" id="Слой_1" xmlns="http://www.w3.org/2000/svg" xmlns:xlink="http://www.w3.org/1999/xlink" x="0px" y="0px"
	 viewBox="0 0 460 110" style="enable-background:new 0 0 460 110;" xml:space="preserve">
<style type="text/css">
	.st0{fill:#FFFFFF;}
</style>
<sodipodi:namedview  bordercolor="#666666" borderopacity="1" gridtolerance="10" guidetolerance="10" id="namedview9" inkscape:current-layer="g5" inkscape:cx="428.03977" inkscape:cy="270.68004" inkscape:guide-bbox="true" inkscape:pageopacity="0" inkscape:pageshadow="2" inkscape:window-height="1017" inkscape:window-maximized="1" inkscape:window-width="1920" inkscape:window-x="-4" inkscape:window-y="-4" inkscape:zoom="1.3538462" objecttolerance="10" pagecolor="#ffffff" showgrid="false" showguides="true">
	<sodipodi:guide  id="guide4141" orientation="0,1" position="263.75886,40.216698"></sodipodi:guide>
	<sodipodi:guide  id="guide4170" orientation="0,1" position="125.35075,201.60579"></sodipodi:guide>
</sodipodi:namedview>
<g id="g5">
	<g id="g4157" transform="translate(-354.74037,245.56016)">
		<path id="path4159" inkscape:connector-curvature="0" sodipodi:nodetypes="cscscscsscsccccc" class="st0" d="M815.7-166.1
			c-9.2-9-25.3-15-43.8-15c-3.6,0-7.2,0.3-10.8,0.8c-9.9-23.1-43.3-40-83.5-40c-18.9,0-36.1,3.7-50.1,10.1
			c-6.8-20.3-36.1-35.5-70.4-35.5c-32.9,0-60.4,13.5-69,32.4c-4.1-0.6-8.1-0.8-12.6-0.8c-29.3,0-53.2,14.9-53.2,33.2
			c0,1.1,0,2.5,0.5,3.7c-7.2-2.3-15.3-3.7-23.9-3.7c-18.1,0-34.2,5.8-43.5,14.7l-0.1,30.5l460.4,0L815.7-166.1L815.7-166.1z"/>
	</g>
</g>
</svg>
